<svg version="1.2" fill="#fff" xmlns="http://www.w3.org/2000/svg" viewBox="0 0 256 256" xml:space="preserve"><path d="M216.2 92.5c-5.2-5.3-13.8-5.4-19-.1L157.8 134l-.3.3c-25.5.1-46.2 16.8-46.2 37.3h-5.8c0-23.6 23.1-42.8 51.6-43.1l-.1-19.4-.1-85.5c-.7-5.8-5.6-10.3-11.7-10.3-6.5 0-11.7 5.3-11.7 11.7v72.9l-5.2.2-.1-81.2c0-6.5-5.3-11.7-11.8-11.7s-11.7 5.3-11.7 11.8v81h-5.6l.1-63.6c0-6.5-5.3-11.7-11.8-11.7S75.7 28 75.7 34.4V98h-5.2l.1-34.2c0-6.5-5.3-11.7-11.8-11.7s-11.7 5.3-11.7 11.8v111c0 13.2 6.8 24.4 16.2 28.1v48.4h.2v.4l81.2-.4v-51.1c2.5-.9 5.1-2 7.6-3.3 15.4-7.9 26.1-20.3 29.5-32.5 2.9-4.3 36.8-56.2 36.8-56.2 2.8-4.6 2-11.4-2.4-15.8z"/></svg>